<svg xmlns="http://www.w3.org/2000/svg" xmlns:svg="http://www.w3.org/2000/svg" xmlns:xlink="http://www.w3.org/1999/xlink" id="svg8" width="210mm" height="297mm" version="1.1" viewBox="0 0 210 297"><defs id="defs2"><symbol id="peak" viewBox="0 0 509.053 441.04"><title id="title2645">peak</title><path style="stroke-width:.26458332" id="path2647" d="M 0,116.58837 67.312326,0 134.68696,116.6919 Z"/></symbol><symbol id="mountain_pass" viewBox="0 0 506.129 506.129"><title id="title2640">mountain_pass</title><path style="stroke-width:.26458332" id="path2642" d="M 86.728557,1.0583333e-6 70.855623,0.25631616 71.13106,17.33331 17.151924,71.312445 H -5.2916665e-7 v 15.875 H 23.727751 L 87.112512,23.802682 86.728557,5.2916667e-7 Z M 110.11059,46.800763 46.725829,110.18552 v 23.72776 h 15.875 v -17.15193 l 53.979131,-53.97965 17.077,0.275436 0.25631,-15.872933 z"/></symbol><symbol id="dot"><title id="title20998">dot</title><path style="stroke-width:.26458332" id="path21000" d="m 2.1166667,1.5875 c -0.2921,0 -0.5291667,0.2370667 -0.5291667,0.5291667 0,0.2921 0.2370667,0.5291666 0.5291667,0.5291666 0.2921,0 0.5291666,-0.2370666 0.5291666,-0.5291666 0,-0.2921 -0.2370666,-0.5291667 -0.5291666,-0.5291667 z"/></symbol></defs><metadata id="metadata5"/><g id="layer1"><g id="g96386" transform="translate(0,92.475257)"><g id="g96362" transform="matrix(2.6941925,0,0,2.6941925,-64.838348,-416.79048)"><use id="use96348" width="100%" height="100%" x="0" y="0" transform="matrix(70.953066,0,0,67.922608,-87.145305,31.724704)" xlink:href="#dot" style="fill:#003731;fill-opacity:1;stroke:none"/><use id="use96350" width="100%" height="100%" x="0" y="0" transform="matrix(0.80277971,0,0,0.84607195,50.102801,110.20043)" xlink:href="#mountain_pass" style="fill:#fcfcfc;fill-opacity:1;stroke:none"/><use id="use96352" width="100%" height="100%" x="0" y="0" transform="matrix(0.93197279,0,0,1.0157035,36.204781,89.378038)" xlink:href="#peak" style="fill:#00cb94;fill-opacity:1;stroke:none"/></g></g></g></svg>