<?xml version="1.0" encoding="UTF-8" standalone="no"?>
<!-- Created with Inkscape (http://www.inkscape.org/) -->

<svg
   xmlns:dc="http://purl.org/dc/elements/1.1/"
   xmlns:cc="http://creativecommons.org/ns#"
   xmlns:rdf="http://www.w3.org/1999/02/22-rdf-syntax-ns#"
   xmlns:svg="http://www.w3.org/2000/svg"
   xmlns="http://www.w3.org/2000/svg"
   xmlns:xlink="http://www.w3.org/1999/xlink"
   xmlns:sodipodi="http://sodipodi.sourceforge.net/DTD/sodipodi-0.dtd"
   xmlns:inkscape="http://www.inkscape.org/namespaces/inkscape"
   width="210mm"
   height="297mm"
   viewBox="0 0 210 297"
   version="1.1"
   id="svg8"
   inkscape:version="0.92.5 (2060ec1f9f, 2020-04-08)"
   sodipodi:docname="sc-default.svg">
  <defs
     id="defs2">
    <symbol
       id="peak"
       viewBox="0 0 509.05307 441.04025">
      <title
         id="title2645">peak</title>
      <path
         style="stroke-width:0.26458332"
         inkscape:connector-curvature="0"
         d="M 0,116.58837 67.312326,0 134.68696,116.6919 Z"
         id="path2647" />
    </symbol>
    <symbol
       id="mountain_pass"
       viewBox="0 0 506.12891 506.12891">
      <title
         id="title2640">mountain_pass</title>
      <path
         style="stroke-width:0.26458332"
         inkscape:connector-curvature="0"
         d="M 86.728557,1.0583333e-6 70.855623,0.25631616 71.13106,17.33331 17.151924,71.312445 H -5.2916665e-7 v 15.875 H 23.727751 L 87.112512,23.802682 86.728557,5.2916667e-7 Z M 110.11059,46.800763 46.725829,110.18552 v 23.72776 h 15.875 v -17.15193 l 53.979131,-53.97965 17.077,0.275436 0.25631,-15.872933 z"
         id="path2642" />
    </symbol>
    <symbol
       id="dot">
      <title
         id="title20998">dot</title>
      <path
         style="stroke-width:0.26458332"
         inkscape:connector-curvature="0"
         d="m 2.1166667,1.5875 c -0.2921,0 -0.5291667,0.2370667 -0.5291667,0.5291667 0,0.2921 0.2370667,0.5291666 0.5291667,0.5291666 0.2921,0 0.5291666,-0.2370666 0.5291666,-0.5291666 0,-0.2921 -0.2370666,-0.5291667 -0.5291666,-0.5291667 z"
         id="path21000" />
    </symbol>
  </defs>
  <sodipodi:namedview
     id="base"
     pagecolor="#ffffff"
     bordercolor="#666666"
     borderopacity="1.0"
     inkscape:pageopacity="0.0"
     inkscape:pageshadow="2"
     inkscape:zoom="0.7"
     inkscape:cx="516.88429"
     inkscape:cy="508.95292"
     inkscape:document-units="mm"
     inkscape:current-layer="g96386"
     showgrid="false"
     inkscape:window-width="1366"
     inkscape:window-height="744"
     inkscape:window-x="0"
     inkscape:window-y="0"
     inkscape:window-maximized="1">
    <inkscape:grid
       type="xygrid"
       id="grid96339" />
  </sodipodi:namedview>
  <metadata
     id="metadata5">
    <rdf:RDF>
      <cc:Work
         rdf:about="">
        <dc:format>image/svg+xml</dc:format>
        <dc:type
           rdf:resource="http://purl.org/dc/dcmitype/StillImage" />
        <dc:title></dc:title>
      </cc:Work>
    </rdf:RDF>
  </metadata>
  <g
     inkscape:label="Layer 1"
     inkscape:groupmode="layer"
     id="layer1">
    <g
       id="g96386"
       transform="translate(0,92.475257)">
      <g
         id="g96346"
         transform="translate(-49.444862,-157.15448)">
        <use
           transform="matrix(70.953066,0,0,67.922608,-45.183989,4.7304809)"
           height="100%"
           width="100%"
           y="0"
           x="0"
           xlink:href="#dot"
           style="fill:#5ebaaf;fill-opacity:1;stroke:none"
           id="use96325" />
        <use
           transform="matrix(0.80277971,0,0,0.84607195,92.064117,83.206207)"
           height="100%"
           width="100%"
           y="0"
           x="0"
           xlink:href="#mountain_pass"
           style="fill:#fcfcfc;fill-opacity:1;stroke:none"
           id="use84620" />
        <use
           transform="matrix(0.93197279,0,0,1.0157035,78.166097,62.383815)"
           height="100%"
           width="100%"
           y="0"
           x="0"
           xlink:href="#peak"
           style="fill:#00553e;fill-opacity:1;stroke:none"
           id="use84595" />
      </g>
      <g
         transform="translate(0,-92.475257)"
         id="g96362">
        <use
           id="use96348"
           style="fill:#003731;fill-opacity:1;stroke:none"
           xlink:href="#dot"
           x="0"
           y="0"
           width="100%"
           height="100%"
           transform="matrix(70.953066,0,0,67.922608,-87.145305,31.724704)" />
        <use
           id="use96350"
           style="fill:#fcfcfc;fill-opacity:1;stroke:none"
           xlink:href="#mountain_pass"
           x="0"
           y="0"
           width="100%"
           height="100%"
           transform="matrix(0.80277971,0,0,0.84607195,50.102801,110.20043)" />
        <use
           id="use96352"
           style="fill:#00cb94;fill-opacity:1;stroke:none"
           xlink:href="#peak"
           x="0"
           y="0"
           width="100%"
           height="100%"
           transform="matrix(0.93197279,0,0,1.0157035,36.204781,89.378038)" />
      </g>
      <g
         transform="translate(0,-92.475257)"
         id="g96378">
        <use
           transform="matrix(70.953066,0,0,67.922608,0.5191,-60.216013)"
           height="100%"
           width="100%"
           y="0"
           x="0"
           xlink:href="#dot"
           style="fill:#0a8376;fill-opacity:1;stroke:none"
           id="use96364" />
        <use
           transform="matrix(0.80277971,0,0,0.84607195,137.76721,18.259713)"
           height="100%"
           width="100%"
           y="0"
           x="0"
           xlink:href="#mountain_pass"
           style="fill:#fcfcfc;fill-opacity:1;stroke:none"
           id="use96366" />
        <use
           transform="matrix(0.93197279,0,0,1.0157035,123.86919,-2.562679)"
           height="100%"
           width="100%"
           y="0"
           x="0"
           xlink:href="#peak"
           style="fill:#005857;fill-opacity:1;stroke:#000000;stroke-opacity:1"
           id="use96368" />
      </g>
      <g
         id="g96391">
        <use
           transform="matrix(70.953066,0,0,67.922608,0.5191,-60.216013)"
           height="100%"
           width="100%"
           y="0"
           x="0"
           xlink:href="#dot"
           style="fill:#aa0000;fill-opacity:1;stroke:none"
           id="use96380" />
        <use
           transform="matrix(0.80277971,0,0,0.84607195,137.76721,18.259713)"
           height="100%"
           width="100%"
           y="0"
           x="0"
           xlink:href="#mountain_pass"
           style="fill:#de8787;fill-opacity:1;stroke:none"
           id="use96382" />
        <use
           transform="matrix(0.93197279,0,0,1.0157035,123.86919,-2.562679)"
           height="100%"
           width="100%"
           y="0"
           x="0"
           xlink:href="#peak"
           style="fill:#ffccaa;fill-opacity:1;stroke:#000000;stroke-opacity:1"
           id="use96384" />
      </g>
    </g>
  </g>
</svg>
