<?xml version="1.0" encoding="UTF-8" standalone="no"?>
<!-- Created with Inkscape (http://www.inkscape.org/) -->

<svg
   xmlns:osb="http://www.openswatchbook.org/uri/2009/osb"
   xmlns:dc="http://purl.org/dc/elements/1.1/"
   xmlns:cc="http://creativecommons.org/ns#"
   xmlns:rdf="http://www.w3.org/1999/02/22-rdf-syntax-ns#"
   xmlns:svg="http://www.w3.org/2000/svg"
   xmlns="http://www.w3.org/2000/svg"
   xmlns:xlink="http://www.w3.org/1999/xlink"
   xmlns:sodipodi="http://sodipodi.sourceforge.net/DTD/sodipodi-0.dtd"
   xmlns:inkscape="http://www.inkscape.org/namespaces/inkscape"
   width="210mm"
   height="297mm"
   viewBox="0 0 210 297"
   version="1.1"
   id="svg8"
   inkscape:version="0.92.5 (2060ec1f9f, 2020-04-08)"
   sodipodi:docname="sc-models-text.svg">
  <defs
     id="defs2">
    <linearGradient
       inkscape:collect="always"
       id="linearGradient2884">
      <stop
         style="stop-color:#7d7d7d;stop-opacity:1;"
         offset="0"
         id="stop2880" />
      <stop
         style="stop-color:#7d7d7d;stop-opacity:0;"
         offset="1"
         id="stop2882" />
    </linearGradient>
    <linearGradient
       id="linearGradient2852"
       osb:paint="solid">
      <stop
         style="stop-color:#7d7d7d;stop-opacity:1;"
         offset="0"
         id="stop2850" />
    </linearGradient>
    <marker
       inkscape:stockid="Arrow1Sstart"
       orient="auto"
       refY="0.0"
       refX="0.0"
       id="Arrow1Sstart"
       style="overflow:visible"
       inkscape:isstock="true">
      <path
         id="path1125"
         d="M 0.0,0.0 L 5.0,-5.0 L -12.5,0.0 L 5.0,5.0 L 0.0,0.0 z "
         style="fill-rule:evenodd;stroke:#000000;stroke-width:1.0pt"
         transform="scale(0.2) translate(6,0)" />
    </marker>
    <symbol
       id="peak"
       viewBox="0 0 509.05307 441.04025">
      <title
         id="title2645">peak</title>
      <path
         style="stroke-width:0.26458332"
         inkscape:connector-curvature="0"
         d="M 0,116.58837 67.312326,0 134.68696,116.6919 Z"
         id="path2647" />
    </symbol>
    <symbol
       id="mountain_pass"
       viewBox="0 0 506.12891 506.12891">
      <title
         id="title2640">mountain_pass</title>
      <path
         style="stroke-width:0.26458332"
         inkscape:connector-curvature="0"
         d="M 86.728557,1.0583333e-6 70.855623,0.25631616 71.13106,17.33331 17.151924,71.312445 H -5.2916665e-7 v 15.875 H 23.727751 L 87.112512,23.802682 86.728557,5.2916667e-7 Z M 110.11059,46.800763 46.725829,110.18552 v 23.72776 h 15.875 v -17.15193 l 53.979131,-53.97965 17.077,0.275436 0.25631,-15.872933 z"
         id="path2642" />
    </symbol>
    <symbol
       id="dot">
      <title
         id="title20998">dot</title>
      <path
         style="stroke-width:0.26458332"
         inkscape:connector-curvature="0"
         d="m 2.1166667,1.5875 c -0.2921,0 -0.5291667,0.2370667 -0.5291667,0.5291667 0,0.2921 0.2370667,0.5291666 0.5291667,0.5291666 0.2921,0 0.5291666,-0.2370666 0.5291666,-0.5291666 0,-0.2921 -0.2370666,-0.5291667 -0.5291666,-0.5291667 z"
         id="path21000" />
    </symbol>
    <radialGradient
       inkscape:collect="always"
       xlink:href="#linearGradient2884"
       id="radialGradient2962"
       gradientUnits="userSpaceOnUse"
       gradientTransform="matrix(0.21581245,0,0,0.10669696,-51.089417,58.181041)"
       cx="517.96191"
       cy="298.10553"
       fx="517.96191"
       fy="298.10553"
       r="96.183594" />
    <radialGradient
       inkscape:collect="always"
       xlink:href="#linearGradient2884"
       id="radialGradient2964"
       gradientUnits="userSpaceOnUse"
       gradientTransform="matrix(0.21581245,0,0,0.10669696,-51.089417,58.181041)"
       cx="517.96191"
       cy="298.10553"
       fx="517.96191"
       fy="298.10553"
       r="96.183594" />
    <radialGradient
       inkscape:collect="always"
       xlink:href="#linearGradient2884"
       id="radialGradient963"
       gradientUnits="userSpaceOnUse"
       gradientTransform="matrix(0.21581245,0,0,0.10669696,-51.089417,58.181041)"
       cx="517.96191"
       cy="298.10553"
       fx="517.96191"
       fy="298.10553"
       r="96.183594" />
    <radialGradient
       inkscape:collect="always"
       xlink:href="#linearGradient2884"
       id="radialGradient965"
       gradientUnits="userSpaceOnUse"
       gradientTransform="matrix(0.21581245,0,0,0.10669696,-51.089417,58.181041)"
       cx="517.96191"
       cy="298.10553"
       fx="517.96191"
       fy="298.10553"
       r="96.183594" />
    <radialGradient
       inkscape:collect="always"
       xlink:href="#linearGradient2884"
       id="radialGradient967"
       gradientUnits="userSpaceOnUse"
       gradientTransform="matrix(0.21581245,0,0,0.10669696,-51.089417,58.181041)"
       cx="517.96191"
       cy="298.10553"
       fx="517.96191"
       fy="298.10553"
       r="96.183594" />
    <radialGradient
       inkscape:collect="always"
       xlink:href="#linearGradient2884"
       id="radialGradient969"
       gradientUnits="userSpaceOnUse"
       gradientTransform="matrix(0.21581245,0,0,0.10669696,-51.089417,58.181041)"
       cx="517.96191"
       cy="298.10553"
       fx="517.96191"
       fy="298.10553"
       r="96.183594" />
    <radialGradient
       inkscape:collect="always"
       xlink:href="#linearGradient2884"
       id="radialGradient971"
       gradientUnits="userSpaceOnUse"
       gradientTransform="matrix(0.21581245,0,0,0.10669696,-51.089417,58.181041)"
       cx="517.96191"
       cy="298.10553"
       fx="517.96191"
       fy="298.10553"
       r="96.183594" />
    <radialGradient
       inkscape:collect="always"
       xlink:href="#linearGradient2884"
       id="radialGradient973"
       gradientUnits="userSpaceOnUse"
       gradientTransform="matrix(0.21581245,0,0,0.10669696,-51.089417,58.181041)"
       cx="517.96191"
       cy="298.10553"
       fx="517.96191"
       fy="298.10553"
       r="96.183594" />
    <radialGradient
       inkscape:collect="always"
       xlink:href="#linearGradient2884"
       id="radialGradient975"
       gradientUnits="userSpaceOnUse"
       gradientTransform="matrix(0.21581245,0,0,0.10669696,-51.089417,58.181041)"
       cx="517.96191"
       cy="298.10553"
       fx="517.96191"
       fy="298.10553"
       r="96.183594" />
    <radialGradient
       inkscape:collect="always"
       xlink:href="#linearGradient2884"
       id="radialGradient977"
       gradientUnits="userSpaceOnUse"
       gradientTransform="matrix(0.21581245,0,0,0.10669696,-51.089417,58.181041)"
       cx="517.96191"
       cy="298.10553"
       fx="517.96191"
       fy="298.10553"
       r="96.183594" />
    <radialGradient
       inkscape:collect="always"
       xlink:href="#linearGradient2884"
       id="radialGradient979"
       gradientUnits="userSpaceOnUse"
       gradientTransform="matrix(0.21581245,0,0,0.10669696,-51.089417,58.181041)"
       cx="517.96191"
       cy="298.10553"
       fx="517.96191"
       fy="298.10553"
       r="96.183594" />
  </defs>
  <sodipodi:namedview
     id="base"
     pagecolor="#ffffff"
     bordercolor="#666666"
     borderopacity="1.0"
     inkscape:pageopacity="0.0"
     inkscape:pageshadow="2"
     inkscape:zoom="0.7"
     inkscape:cx="101.98854"
     inkscape:cy="464.48599"
     inkscape:document-units="mm"
     inkscape:current-layer="layer1"
     showgrid="false"
     inkscape:window-width="1366"
     inkscape:window-height="744"
     inkscape:window-x="0"
     inkscape:window-y="0"
     inkscape:window-maximized="1"
     showguides="false">
    <inkscape:grid
       type="xygrid"
       id="grid96339" />
  </sodipodi:namedview>
  <metadata
     id="metadata5">
    <rdf:RDF>
      <cc:Work
         rdf:about="">
        <dc:format>image/svg+xml</dc:format>
        <dc:type
           rdf:resource="http://purl.org/dc/dcmitype/StillImage" />
        <dc:title />
      </cc:Work>
    </rdf:RDF>
  </metadata>
  <g
     inkscape:label="Layer 1"
     inkscape:groupmode="layer"
     id="layer1">
    <g
       id="g3053"
       transform="translate(64.181125,39.309524)"
       inkscape:export-filename="/home/faouzi/Projects/Web/nextJs/social-share/social-share/public/sc-icons/txt/sc-light-txt.png"
       inkscape:export-xdpi="479.436"
       inkscape:export-ydpi="479.436">
      <g
         id="g3033">
        <use
           transform="matrix(42.36766,0,0,40.558106,-64.482399,-62.41685)"
           height="100%"
           width="100%"
           y="0"
           x="0"
           xlink:href="#dot"
           style="fill:#5ebaaf;fill-opacity:1;stroke:none"
           id="use96325" />
        <use
           transform="matrix(0.47935769,0,0,0.50520845,17.471508,-15.557241)"
           height="100%"
           width="100%"
           y="0"
           x="0"
           xlink:href="#mountain_pass"
           style="fill:#fcfcfc;fill-opacity:1;stroke:none"
           id="use84620" />
        <use
           transform="matrix(0.55650176,0,0,0.60649924,9.1726898,-27.990759)"
           height="100%"
           width="100%"
           y="0"
           x="0"
           xlink:href="#peak"
           style="fill:#00553e;fill-opacity:1;stroke:none"
           id="use84595" />
      </g>
      <g
         aria-label="Social
Share"
         transform="matrix(0.21581245,0,0,0.21581245,-53.570851,-32.521341)"
         style="font-style:normal;font-variant:normal;font-weight:normal;font-stretch:normal;font-size:48px;line-height:1.25;font-family:'StarJedi Special Edition';-inkscape-font-specification:'StarJedi Special Edition';letter-spacing:0px;word-spacing:0px;fill:#008494;fill-opacity:1;stroke:none"
         id="flowRoot839">
        <path
           d="m 464.23145,261.38861 h -10.64063 q -6.02344,-0.1875 -1.78125,3.32812 7.59375,6.65625 7.45313,12.9375 -0.14063,6.28125 -7.45313,7.5 h -29.53125 v -10.07812 h 18.65625 q 6.63281,0.1875 1.6875,-3.70313 -8.15625,-7.5 -6.9375,-13.78125 1.21875,-6.28125 7.6875,-6.28125 h 20.85938 z"
           style="font-style:normal;font-variant:normal;font-weight:normal;font-stretch:normal;font-size:48px;font-family:'StarJedi Special Edition';-inkscape-font-specification:'StarJedi Special Edition';text-align:center;text-anchor:middle;fill:#008494;fill-opacity:1"
           id="path894" />
        <path
           d="m 499.50488,268.41986 q 0,5.55468 -2.32031,9.46875 -2.32031,3.91406 -6.72656,5.88281 -4.38281,1.96875 -10.47656,1.96875 -6.09375,0 -10.47657,-1.96875 -4.35937,-1.99219 -6.60937,-5.85938 -2.25,-3.89062 -2.25,-9.49218 0,-4.24219 1.28906,-7.45313 1.28906,-3.23437 3.77344,-5.4375 2.48437,-2.20312 6.09375,-3.32812 3.60937,-1.14844 8.17969,-1.14844 6.07031,0 10.47656,2.01562 4.40625,1.99219 6.72656,5.90625 2.32031,3.89063 2.32031,9.44532 z m -26.83593,0.0937 q 0,3.25781 1.45312,5.67187 1.47656,2.41406 5.78906,2.41406 3.32813,0 4.96875,-1.26562 1.66407,-1.26563 2.0625,-2.88281 0.42188,-1.64063 0.5625,-3.9375 -0.14062,-3.25782 -1.57031,-5.67188 -1.42969,-2.4375 -6.02344,-2.4375 -7.24218,0 -7.24218,8.10938 z"
           style="font-style:normal;font-variant:normal;font-weight:normal;font-stretch:normal;font-size:48px;font-family:'StarJedi Special Edition';-inkscape-font-specification:'StarJedi Special Edition';text-align:center;text-anchor:middle;fill:#008494;fill-opacity:1"
           id="path896" />
        <path
           d="m 523.90332,275.07611 h 10.59375 v 10.07812 h -15 q -5.50781,0 -9.96094,-1.94531 -4.45312,-1.96875 -7.03125,-5.88281 -2.55468,-3.91407 -2.55468,-9.58594 0,-3.98438 1.52343,-7.10156 1.54688,-3.14063 4.26563,-5.20313 2.71875,-2.08594 6.23437,-3.09375 3.53907,-1.03125 7.52344,-1.03125 h 9.28125 5.71875 v 10.07813 h -10.59375 q -3.5625,0 -5.27344,0.21093 -1.71093,0.21094 -3.04687,0.70313 -1.33594,0.49219 -2.36719,1.71094 -1.03125,1.21875 -1.19531,4.3125 0.11719,3 1.19531,4.28906 1.07813,1.28906 2.625,1.71094 1.54688,0.42187 3.1875,0.58593 1.64063,0.16407 4.875,0.16407 z"
           style="font-style:normal;font-variant:normal;font-weight:normal;font-stretch:normal;font-size:48px;font-family:'StarJedi Special Edition';-inkscape-font-specification:'StarJedi Special Edition';text-align:center;text-anchor:middle;fill:#008494;fill-opacity:1"
           id="path898" />
        <path
           d="m 535.43457,251.31048 h 11.01563 v 33.84375 h -11.01563 z"
           style="font-style:normal;font-variant:normal;font-weight:normal;font-stretch:normal;font-size:48px;font-family:'StarJedi Special Edition';-inkscape-font-specification:'StarJedi Special Edition';text-align:center;text-anchor:middle;fill:#008494;fill-opacity:1"
           id="path900" />
        <path
           d="m 545.5127,285.15423 11.13281,-33.84375 h 16.80469 l 11.32031,33.84375 h -12.79688 l -2.13281,-6.09375 h -10.05469 l -2.13281,6.09375 z m 19.57031,-26.34375 -4.85156,13.40625 h 9.32812 z"
           style="font-style:normal;font-variant:normal;font-weight:normal;font-stretch:normal;font-size:48px;font-family:'StarJedi Special Edition';-inkscape-font-specification:'StarJedi Special Edition';text-align:center;text-anchor:middle;fill:#008494;fill-opacity:1"
           id="path902" />
        <path
           d="m 584.30176,285.15423 v -33.84375 h 11.01562 v 23.76563 h 18.32813 v 10.07812 z"
           style="font-style:normal;font-variant:normal;font-weight:normal;font-stretch:normal;font-size:48px;font-family:'StarJedi Special Edition';-inkscape-font-specification:'StarJedi Special Edition';text-align:center;text-anchor:middle;fill:#008494;fill-opacity:1"
           id="path904" />
        <path
           d="m 472.61035,321.38861 h -10.64062 q -6.02344,-0.1875 -1.78125,3.32812 7.59375,6.65625 7.45312,12.9375 -0.14062,6.28125 -7.45312,7.5 h -29.53125 v -10.07812 h 18.65625 q 6.63281,0.1875 1.6875,-3.70313 -8.15625,-7.5 -6.9375,-13.78125 1.21875,-6.28125 7.6875,-6.28125 h 20.85937 z"
           style="font-style:normal;font-variant:normal;font-weight:normal;font-stretch:normal;font-size:48px;font-family:'StarJedi Special Edition';-inkscape-font-specification:'StarJedi Special Edition';text-align:center;text-anchor:middle;fill:#008494;fill-opacity:1"
           id="path906" />
        <path
           d="m 489.60254,322.98236 v -11.67188 h 11.01562 v 33.84375 h -11.01562 v -12.1875 h -8.85938 v 12.1875 h -11.01562 v -33.84375 h 11.01562 v 11.67188 z"
           style="font-style:normal;font-variant:normal;font-weight:normal;font-stretch:normal;font-size:48px;font-family:'StarJedi Special Edition';-inkscape-font-specification:'StarJedi Special Edition';text-align:center;text-anchor:middle;fill:#008494;fill-opacity:1"
           id="path908" />
        <path
           d="m 499.68066,345.15423 11.13282,-33.84375 h 16.80468 l 11.32032,33.84375 H 526.1416 l -2.13281,-6.09375 H 513.9541 l -2.13281,6.09375 z m 19.57032,-26.34375 -4.85157,13.40625 h 9.32813 z"
           style="font-style:normal;font-variant:normal;font-weight:normal;font-stretch:normal;font-size:48px;font-family:'StarJedi Special Edition';-inkscape-font-specification:'StarJedi Special Edition';text-align:center;text-anchor:middle;fill:#008494;fill-opacity:1"
           id="path910" />
        <path
           d="m 538.46973,345.15423 v -33.84375 h 22.03125 q 4.07812,0.35156 6.70312,2.32031 2.625,1.94532 3.84375,5.22657 0.9375,4.89843 0.0937,7.57031 -0.84375,2.67187 -2.95312,4.45312 -2.10938,1.78125 -2.625,2.03907 -0.51563,0.23437 -0.75,0.75 0.14062,0.89062 3,1.40625 h 6.98437 v 10.07812 h -8.10937 q -7.3125,0.14063 -11.57813,-4.5 l -4.40625,-4.64062 v 9.14062 z m 12.23437,-24.65625 v 5.71875 h 7.92188 q 3.375,-1.125 3.51562,-2.90625 -0.23437,-1.875 -3.60937,-2.8125 z"
           style="font-style:normal;font-variant:normal;font-weight:normal;font-stretch:normal;font-size:48px;font-family:'StarJedi Special Edition';-inkscape-font-specification:'StarJedi Special Edition';text-align:center;text-anchor:middle;fill:#008494;fill-opacity:1"
           id="path912" />
        <path
           d="m 574.79785,345.15423 v -33.84375 h 29.01563 v 10.07813 h -18 v 2.20312 h 7.54687 v 6.5625 h -7.54687 v 4.92188 h 20.85937 v 10.07812 z"
           style="font-style:normal;font-variant:normal;font-weight:normal;font-stretch:normal;font-size:48px;font-family:'StarJedi Special Edition';-inkscape-font-specification:'StarJedi Special Edition';text-align:center;text-anchor:middle;fill:#008494;fill-opacity:1"
           id="path914" />
      </g>
    </g>
    <g
       id="g1016"
       transform="translate(0,131.78478)" />
    <g
       id="g3093"
       transform="translate(55.95042,39.309524)"
       inkscape:export-filename="/home/faouzi/Projects/Web/nextJs/social-share/social-share/public/sc-icons/txt/sc-danger-txt.png"
       inkscape:export-xdpi="479.436"
       inkscape:export-ydpi="479.436">
      <g
         id="g96391"
         transform="matrix(0.55735923,0,0,0.55735923,-50.327493,144.71509)">
        <use
           transform="matrix(70.953066,0,0,67.922608,0.5191,-60.216013)"
           height="100%"
           width="100%"
           y="0"
           x="0"
           xlink:href="#dot"
           style="fill:#aa0000;fill-opacity:1;stroke:none"
           id="use96380" />
        <use
           transform="matrix(0.80277971,0,0,0.84607195,137.76721,18.259713)"
           height="100%"
           width="100%"
           y="0"
           x="0"
           xlink:href="#mountain_pass"
           style="fill:#de8787;fill-opacity:1;stroke:none"
           id="use96382" />
        <use
           transform="matrix(0.93197279,0,0,1.0157035,123.86919,-2.562679)"
           height="100%"
           width="100%"
           y="0"
           x="0"
           xlink:href="#peak"
           style="fill:#ffccaa;fill-opacity:1;stroke:#000000;stroke-opacity:1"
           id="use96384" />
      </g>
      <g
         aria-label="Social
Share"
         transform="matrix(0.21581245,0,0,0.21581245,-47.074838,135.40077)"
         style="font-style:normal;font-variant:normal;font-weight:normal;font-stretch:normal;font-size:48px;line-height:1.25;font-family:'StarJedi Special Edition';-inkscape-font-specification:'StarJedi Special Edition';letter-spacing:0px;word-spacing:0px;fill:#ff5b00;fill-opacity:1;stroke:none"
         id="flowRoot962">
        <path
           d="m 464.23145,261.38861 h -10.64063 q -6.02344,-0.1875 -1.78125,3.32812 7.59375,6.65625 7.45313,12.9375 -0.14063,6.28125 -7.45313,7.5 h -29.53125 v -10.07812 h 18.65625 q 6.63281,0.1875 1.6875,-3.70313 -8.15625,-7.5 -6.9375,-13.78125 1.21875,-6.28125 7.6875,-6.28125 h 20.85938 z"
           style="font-style:normal;font-variant:normal;font-weight:normal;font-stretch:normal;font-size:48px;font-family:'StarJedi Special Edition';-inkscape-font-specification:'StarJedi Special Edition';text-align:center;text-anchor:middle;fill:#ff5b00;fill-opacity:1;stroke:none"
           id="path917" />
        <path
           d="m 499.50488,268.41986 q 0,5.55468 -2.32031,9.46875 -2.32031,3.91406 -6.72656,5.88281 -4.38281,1.96875 -10.47656,1.96875 -6.09375,0 -10.47657,-1.96875 -4.35937,-1.99219 -6.60937,-5.85938 -2.25,-3.89062 -2.25,-9.49218 0,-4.24219 1.28906,-7.45313 1.28906,-3.23437 3.77344,-5.4375 2.48437,-2.20312 6.09375,-3.32812 3.60937,-1.14844 8.17969,-1.14844 6.07031,0 10.47656,2.01562 4.40625,1.99219 6.72656,5.90625 2.32031,3.89063 2.32031,9.44532 z m -26.83593,0.0937 q 0,3.25781 1.45312,5.67187 1.47656,2.41406 5.78906,2.41406 3.32813,0 4.96875,-1.26562 1.66407,-1.26563 2.0625,-2.88281 0.42188,-1.64063 0.5625,-3.9375 -0.14062,-3.25782 -1.57031,-5.67188 -1.42969,-2.4375 -6.02344,-2.4375 -7.24218,0 -7.24218,8.10938 z"
           style="font-style:normal;font-variant:normal;font-weight:normal;font-stretch:normal;font-size:48px;font-family:'StarJedi Special Edition';-inkscape-font-specification:'StarJedi Special Edition';text-align:center;text-anchor:middle;fill:#ff5b00;fill-opacity:1;stroke:none"
           id="path919" />
        <path
           d="m 523.90332,275.07611 h 10.59375 v 10.07812 h -15 q -5.50781,0 -9.96094,-1.94531 -4.45312,-1.96875 -7.03125,-5.88281 -2.55468,-3.91407 -2.55468,-9.58594 0,-3.98438 1.52343,-7.10156 1.54688,-3.14063 4.26563,-5.20313 2.71875,-2.08594 6.23437,-3.09375 3.53907,-1.03125 7.52344,-1.03125 h 9.28125 5.71875 v 10.07813 h -10.59375 q -3.5625,0 -5.27344,0.21093 -1.71093,0.21094 -3.04687,0.70313 -1.33594,0.49219 -2.36719,1.71094 -1.03125,1.21875 -1.19531,4.3125 0.11719,3 1.19531,4.28906 1.07813,1.28906 2.625,1.71094 1.54688,0.42187 3.1875,0.58593 1.64063,0.16407 4.875,0.16407 z"
           style="font-style:normal;font-variant:normal;font-weight:normal;font-stretch:normal;font-size:48px;font-family:'StarJedi Special Edition';-inkscape-font-specification:'StarJedi Special Edition';text-align:center;text-anchor:middle;fill:#ff5b00;fill-opacity:1;stroke:none"
           id="path921" />
        <path
           d="m 535.43457,251.31048 h 11.01563 v 33.84375 h -11.01563 z"
           style="font-style:normal;font-variant:normal;font-weight:normal;font-stretch:normal;font-size:48px;font-family:'StarJedi Special Edition';-inkscape-font-specification:'StarJedi Special Edition';text-align:center;text-anchor:middle;fill:#ff5b00;fill-opacity:1;stroke:none"
           id="path923" />
        <path
           d="m 545.5127,285.15423 11.13281,-33.84375 h 16.80469 l 11.32031,33.84375 h -12.79688 l -2.13281,-6.09375 h -10.05469 l -2.13281,6.09375 z m 19.57031,-26.34375 -4.85156,13.40625 h 9.32812 z"
           style="font-style:normal;font-variant:normal;font-weight:normal;font-stretch:normal;font-size:48px;font-family:'StarJedi Special Edition';-inkscape-font-specification:'StarJedi Special Edition';text-align:center;text-anchor:middle;fill:#ff5b00;fill-opacity:1;stroke:none"
           id="path925" />
        <path
           d="m 584.30176,285.15423 v -33.84375 h 11.01562 v 23.76563 h 18.32813 v 10.07812 z"
           style="font-style:normal;font-variant:normal;font-weight:normal;font-stretch:normal;font-size:48px;font-family:'StarJedi Special Edition';-inkscape-font-specification:'StarJedi Special Edition';text-align:center;text-anchor:middle;fill:#ff5b00;fill-opacity:1;stroke:none"
           id="path927" />
        <path
           d="m 472.61035,321.38861 h -10.64062 q -6.02344,-0.1875 -1.78125,3.32812 7.59375,6.65625 7.45312,12.9375 -0.14062,6.28125 -7.45312,7.5 h -29.53125 v -10.07812 h 18.65625 q 6.63281,0.1875 1.6875,-3.70313 -8.15625,-7.5 -6.9375,-13.78125 1.21875,-6.28125 7.6875,-6.28125 h 20.85937 z"
           style="font-style:normal;font-variant:normal;font-weight:normal;font-stretch:normal;font-size:48px;font-family:'StarJedi Special Edition';-inkscape-font-specification:'StarJedi Special Edition';text-align:center;text-anchor:middle;fill:#ff5b00;fill-opacity:1;stroke:none"
           id="path929" />
        <path
           d="m 489.60254,322.98236 v -11.67188 h 11.01562 v 33.84375 h -11.01562 v -12.1875 h -8.85938 v 12.1875 h -11.01562 v -33.84375 h 11.01562 v 11.67188 z"
           style="font-style:normal;font-variant:normal;font-weight:normal;font-stretch:normal;font-size:48px;font-family:'StarJedi Special Edition';-inkscape-font-specification:'StarJedi Special Edition';text-align:center;text-anchor:middle;fill:#ff5b00;fill-opacity:1;stroke:none"
           id="path931" />
        <path
           d="m 499.68066,345.15423 11.13282,-33.84375 h 16.80468 l 11.32032,33.84375 H 526.1416 l -2.13281,-6.09375 H 513.9541 l -2.13281,6.09375 z m 19.57032,-26.34375 -4.85157,13.40625 h 9.32813 z"
           style="font-style:normal;font-variant:normal;font-weight:normal;font-stretch:normal;font-size:48px;font-family:'StarJedi Special Edition';-inkscape-font-specification:'StarJedi Special Edition';text-align:center;text-anchor:middle;fill:#ff5b00;fill-opacity:1;stroke:none"
           id="path933" />
        <path
           d="m 538.46973,345.15423 v -33.84375 h 22.03125 q 4.07812,0.35156 6.70312,2.32031 2.625,1.94532 3.84375,5.22657 0.9375,4.89843 0.0937,7.57031 -0.84375,2.67187 -2.95312,4.45312 -2.10938,1.78125 -2.625,2.03907 -0.51563,0.23437 -0.75,0.75 0.14062,0.89062 3,1.40625 h 6.98437 v 10.07812 h -8.10937 q -7.3125,0.14063 -11.57813,-4.5 l -4.40625,-4.64062 v 9.14062 z m 12.23437,-24.65625 v 5.71875 h 7.92188 q 3.375,-1.125 3.51562,-2.90625 -0.23437,-1.875 -3.60937,-2.8125 z"
           style="font-style:normal;font-variant:normal;font-weight:normal;font-stretch:normal;font-size:48px;font-family:'StarJedi Special Edition';-inkscape-font-specification:'StarJedi Special Edition';text-align:center;text-anchor:middle;fill:#ff5b00;fill-opacity:1;stroke:none"
           id="path935" />
        <path
           d="m 574.79785,345.15423 v -33.84375 h 29.01563 v 10.07813 h -18 v 2.20312 h 7.54687 v 6.5625 h -7.54687 v 4.92188 h 20.85937 v 10.07812 z"
           style="font-style:normal;font-variant:normal;font-weight:normal;font-stretch:normal;font-size:48px;font-family:'StarJedi Special Edition';-inkscape-font-specification:'StarJedi Special Edition';text-align:center;text-anchor:middle;fill:#ff5b00;fill-opacity:1;stroke:none"
           id="path937" />
      </g>
    </g>
    <g
       id="g1025">
      <use
         id="use96364"
         style="fill:#0a8376;fill-opacity:1;stroke:none"
         xlink:href="#dot"
         x="0"
         y="0"
         width="100%"
         height="100%"
         transform="matrix(42.163718,0,0,40.362874,0.00389814,35.504722)" />
      <use
         id="use96366"
         style="fill:#fcfcfc;fill-opacity:1;stroke:none"
         xlink:href="#mountain_pass"
         x="0"
         y="0"
         width="100%"
         height="100%"
         transform="matrix(0.47705024,0,0,0.50277656,81.563313,82.138765)" />
      <use
         id="use96368"
         style="fill:#005857;fill-opacity:1;stroke:none;stroke-opacity:1"
         xlink:href="#peak"
         x="0"
         y="0"
         width="100%"
         height="100%"
         transform="matrix(0.55382297,0,0,0.60357977,73.304442,69.7651)" />
      <path
         inkscape:connector-curvature="0"
         id="path940"
         style="font-style:normal;font-variant:normal;font-weight:normal;font-stretch:normal;font-size:48px;line-height:1.25;font-family:'StarJedi Special Edition';-inkscape-font-specification:'StarJedi Special Edition';text-align:center;letter-spacing:0px;word-spacing:0px;text-anchor:middle;fill:#0baf90;fill-opacity:1;stroke:url(#radialGradient963);stroke-width:0.21581244;stroke-opacity:1"
         d="m 110.70788,121.37355 h -2.29638 q -1.29993,-0.0405 -0.38442,0.71825 1.63883,1.4365 1.60848,2.79207 -0.0303,1.35558 -1.60848,1.6186 h -6.37321 v -2.17499 h 4.02625 q 1.43145,0.0405 0.36419,-0.79918 -1.76022,-1.61859 -1.4972,-2.97416 0.26302,-1.35557 1.65906,-1.35557 h 4.50171 z" />
      <path
         inkscape:connector-curvature="0"
         id="path942"
         style="font-style:normal;font-variant:normal;font-weight:normal;font-stretch:normal;font-size:48px;line-height:1.25;font-family:'StarJedi Special Edition';-inkscape-font-specification:'StarJedi Special Edition';text-align:center;letter-spacing:0px;word-spacing:0px;text-anchor:middle;fill:#0baf90;fill-opacity:1;stroke:url(#radialGradient965);stroke-width:0.21581244;stroke-opacity:1"
         d="m 118.32033,122.89098 q 0,1.19877 -0.50076,2.04348 -0.50075,0.8447 -1.45167,1.26958 -0.94587,0.42488 -2.26097,0.42488 -1.31511,0 -2.26098,-0.42488 -0.9408,-0.42994 -1.42638,-1.26453 -0.48558,-0.83964 -0.48558,-2.04853 0,-0.91551 0.2782,-1.60848 0.27819,-0.69801 0.81435,-1.17348 0.53616,-0.47546 1.31511,-0.71825 0.77894,-0.24784 1.76528,-0.24784 1.31005,0 2.26097,0.43499 0.95092,0.42994 1.45167,1.27464 0.50076,0.83965 0.50076,2.03842 z m -5.79153,0.0202 q 0,0.70308 0.3136,1.22406 0.31866,0.52099 1.24935,0.52099 0.71825,0 1.07232,-0.27314 0.35913,-0.27314 0.44511,-0.62214 0.0911,-0.35407 0.1214,-0.84977 -0.0303,-0.70307 -0.3389,-1.22406 -0.30854,-0.52604 -1.29993,-0.52604 -1.56295,0 -1.56295,1.7501 z" />
      <path
         inkscape:connector-curvature="0"
         id="path944"
         style="font-style:normal;font-variant:normal;font-weight:normal;font-stretch:normal;font-size:48px;line-height:1.25;font-family:'StarJedi Special Edition';-inkscape-font-specification:'StarJedi Special Edition';text-align:center;letter-spacing:0px;word-spacing:0px;text-anchor:middle;fill:#0baf90;fill-opacity:1;stroke:url(#radialGradient967);stroke-width:0.21581244;stroke-opacity:1"
         d="m 123.58581,124.32748 h 2.28627 v 2.17499 h -3.23719 q -1.18865,0 -2.1497,-0.41982 -0.96103,-0.42488 -1.51743,-1.26959 -0.55133,-0.8447 -0.55133,-2.06876 0,-0.85988 0.32878,-1.53261 0.33383,-0.67779 0.92057,-1.1229 0.58674,-0.45017 1.34546,-0.66767 0.76377,-0.22255 1.62365,-0.22255 h 2.00301 1.23418 v 2.17498 h -2.28627 q -0.76883,0 -1.13807,0.0455 -0.36924,0.0455 -0.65755,0.15175 -0.28832,0.10622 -0.51087,0.36924 -0.22256,0.26302 -0.25797,0.93069 0.0253,0.64744 0.25797,0.92563 0.23267,0.2782 0.56651,0.36924 0.33383,0.091 0.6879,0.12646 0.35407,0.0354 1.05208,0.0354 z" />
      <path
         inkscape:connector-curvature="0"
         id="path946"
         style="font-style:normal;font-variant:normal;font-weight:normal;font-stretch:normal;font-size:48px;line-height:1.25;font-family:'StarJedi Special Edition';-inkscape-font-specification:'StarJedi Special Edition';text-align:center;letter-spacing:0px;word-spacing:0px;text-anchor:middle;fill:#0baf90;fill-opacity:1;stroke:url(#radialGradient969);stroke-width:0.21581244;stroke-opacity:1"
         d="m 126.0744,119.19857 h 2.37731 v 7.3039 h -2.37731 z" />
      <path
         inkscape:connector-curvature="0"
         id="path948"
         style="font-style:normal;font-variant:normal;font-weight:normal;font-stretch:normal;font-size:48px;line-height:1.25;font-family:'StarJedi Special Edition';-inkscape-font-specification:'StarJedi Special Edition';text-align:center;letter-spacing:0px;word-spacing:0px;text-anchor:middle;fill:#0baf90;fill-opacity:1;stroke:url(#radialGradient971);stroke-width:0.21581244;stroke-opacity:1"
         d="m 128.24939,126.50247 2.4026,-7.3039 h 3.62666 l 2.44306,7.3039 h -2.76173 l -0.46028,-1.31511 h -2.16993 l -0.46029,1.31511 z m 4.22351,-5.68531 -1.04702,2.89323 h 2.01312 z" />
      <path
         inkscape:connector-curvature="0"
         id="path950"
         style="font-style:normal;font-variant:normal;font-weight:normal;font-stretch:normal;font-size:48px;line-height:1.25;font-family:'StarJedi Special Edition';-inkscape-font-specification:'StarJedi Special Edition';text-align:center;letter-spacing:0px;word-spacing:0px;text-anchor:middle;fill:#0baf90;fill-opacity:1;stroke:url(#radialGradient2962);stroke-width:0.21581244;stroke-opacity:1"
         d="m 136.62055,126.50247 v -7.3039 h 2.37731 v 5.12891 h 3.95543 v 2.17499 z" />
      <path
         inkscape:connector-curvature="0"
         id="path952"
         style="font-style:normal;font-variant:normal;font-weight:normal;font-stretch:normal;font-size:48px;line-height:1.25;font-family:'StarJedi Special Edition';-inkscape-font-specification:'StarJedi Special Edition';text-align:center;letter-spacing:0px;word-spacing:0px;text-anchor:middle;fill:#0baf90;fill-opacity:1;stroke:url(#radialGradient973);stroke-width:0.21581244;stroke-opacity:1"
         d="m 112.51615,134.3223 h -2.29638 q -1.29993,-0.0405 -0.38441,0.71825 1.63882,1.4365 1.60847,2.79207 -0.0303,1.35557 -1.60847,1.6186 h -6.37321 v -2.17499 h 4.02625 q 1.43144,0.0405 0.36418,-0.79918 -1.76022,-1.61859 -1.4972,-2.97417 0.26302,-1.35557 1.65906,-1.35557 h 4.50171 z" />
      <path
         inkscape:connector-curvature="0"
         id="path954"
         style="font-style:normal;font-variant:normal;font-weight:normal;font-stretch:normal;font-size:48px;line-height:1.25;font-family:'StarJedi Special Edition';-inkscape-font-specification:'StarJedi Special Edition';text-align:center;letter-spacing:0px;word-spacing:0px;text-anchor:middle;fill:#0baf90;fill-opacity:1;stroke:url(#radialGradient975);stroke-width:0.21581244;stroke-opacity:1"
         d="m 116.18328,134.66625 v -2.51894 h 2.37731 v 7.30391 h -2.37731 V 136.821 h -1.91197 v 2.63022 h -2.3773 v -7.30391 h 2.3773 v 2.51894 z" />
      <path
         inkscape:connector-curvature="0"
         id="path956"
         style="font-style:normal;font-variant:normal;font-weight:normal;font-stretch:normal;font-size:48px;line-height:1.25;font-family:'StarJedi Special Edition';-inkscape-font-specification:'StarJedi Special Edition';text-align:center;letter-spacing:0px;word-spacing:0px;text-anchor:middle;fill:#0baf90;fill-opacity:1;stroke:url(#radialGradient977);stroke-width:0.21581244;stroke-opacity:1"
         d="m 118.35826,139.45122 2.4026,-7.30391 h 3.62666 l 2.44307,7.30391 h -2.76173 l -0.46029,-1.31511 h -2.16992 l -0.46029,1.31511 z m 4.22352,-5.68531 -1.04703,2.89323 h 2.01313 z" />
      <path
         inkscape:connector-curvature="0"
         id="path958"
         style="font-style:normal;font-variant:normal;font-weight:normal;font-stretch:normal;font-size:48px;line-height:1.25;font-family:'StarJedi Special Edition';-inkscape-font-specification:'StarJedi Special Edition';text-align:center;letter-spacing:0px;word-spacing:0px;text-anchor:middle;fill:#0baf90;fill-opacity:1;stroke:url(#radialGradient979);stroke-width:0.21581244;stroke-opacity:1"
         d="m 126.72943,139.45122 v -7.30391 h 4.75461 q 0.88011,0.0759 1.44662,0.50075 0.56651,0.41983 0.82953,1.12796 0.20232,1.05715 0.0202,1.63377 -0.18209,0.57662 -0.63732,0.96104 -0.45523,0.38441 -0.56651,0.44006 -0.11128,0.0506 -0.16186,0.16185 0.0303,0.19221 0.64744,0.30349 h 1.50732 v 2.17499 h -1.75011 q -1.57813,0.0303 -2.4987,-0.97116 l -0.95093,-1.0015 v 1.97266 z m 2.64033,-5.32113 v 1.23418 h 1.70964 q 0.72836,-0.24279 0.75871,-0.62721 -0.0506,-0.40465 -0.77895,-0.60697 z" />
      <path
         inkscape:connector-curvature="0"
         id="path960"
         style="font-style:normal;font-variant:normal;font-weight:normal;font-stretch:normal;font-size:48px;line-height:1.25;font-family:'StarJedi Special Edition';-inkscape-font-specification:'StarJedi Special Edition';text-align:center;letter-spacing:0px;word-spacing:0px;text-anchor:middle;fill:#0baf90;fill-opacity:1;stroke:url(#radialGradient2964);stroke-width:0.21581244;stroke-opacity:1"
         d="m 134.56949,139.45122 v -7.30391 h 6.26193 v 2.17499 h -3.88462 v 0.47546 h 1.6287 v 1.41627 h -1.6287 v 1.0622 h 4.50171 v 2.17499 z" />
    </g>
    <g
       id="g3082"
       transform="translate(55.616195,39.309524)"
       inkscape:export-filename="/home/faouzi/Projects/Web/nextJs/social-share/social-share/public/sc-icons/txt/sc-default-txt.png"
       inkscape:export-xdpi="479.436"
       inkscape:export-ydpi="479.436">
      <g
         transform="matrix(0.57842309,0,0,0.57842309,-3.0525837,31.167438)"
         id="g96362">
        <use
           id="use96348"
           style="fill:#003731;fill-opacity:1;stroke:none"
           xlink:href="#dot"
           x="0"
           y="0"
           width="100%"
           height="100%"
           transform="matrix(70.953066,0,0,67.922608,-87.145305,31.724704)" />
        <use
           id="use96350"
           style="fill:#fcfcfc;fill-opacity:1;stroke:none"
           xlink:href="#mountain_pass"
           x="0"
           y="0"
           width="100%"
           height="100%"
           transform="matrix(0.80277971,0,0,0.84607195,50.102801,110.20043)" />
        <use
           id="use96352"
           style="fill:#00cb94;fill-opacity:1;stroke:none"
           xlink:href="#peak"
           x="0"
           y="0"
           width="100%"
           height="100%"
           transform="matrix(0.93197279,0,0,1.0157035,36.204781,89.378038)" />
      </g>
      <g
         aria-label="Social Share"
         transform="matrix(0.21581245,0,0,0.21581245,-45.357706,76.08832)"
         style="font-style:normal;font-variant:normal;font-weight:normal;font-stretch:normal;font-size:48px;line-height:1.25;font-family:'StarJedi Special Edition';-inkscape-font-specification:'StarJedi Special Edition';letter-spacing:0px;word-spacing:0px;fill:#28987a;fill-opacity:1;stroke:none;stroke-width:1.00086904;stroke-miterlimit:3.5;stroke-dasharray:none;stroke-opacity:1;paint-order:fill markers stroke"
         id="flowRoot940">
        <path
           d="m 464.23145,261.38861 h -10.64063 q -6.02344,-0.1875 -1.78125,3.32812 7.59375,6.65625 7.45313,12.9375 -0.14063,6.28125 -7.45313,7.5 h -29.53125 v -10.07812 h 18.65625 q 6.63281,0.1875 1.6875,-3.70313 -8.15625,-7.5 -6.9375,-13.78125 1.21875,-6.28125 7.6875,-6.28125 h 20.85938 z"
           style="font-style:normal;font-variant:normal;font-weight:normal;font-stretch:normal;font-size:48px;font-family:'StarJedi Special Edition';-inkscape-font-specification:'StarJedi Special Edition';text-align:center;text-anchor:middle;fill:#28987a;fill-opacity:1;stroke:none;stroke-width:1.00086904;stroke-miterlimit:3.5;stroke-dasharray:none;stroke-opacity:1;paint-order:fill markers stroke"
           id="path1082"
           inkscape:connector-curvature="0" />
        <path
           d="m 499.50488,268.41986 q 0,5.55468 -2.32031,9.46875 -2.32031,3.91406 -6.72656,5.88281 -4.38281,1.96875 -10.47656,1.96875 -6.09375,0 -10.47657,-1.96875 -4.35937,-1.99219 -6.60937,-5.85938 -2.25,-3.89062 -2.25,-9.49218 0,-4.24219 1.28906,-7.45313 1.28906,-3.23437 3.77344,-5.4375 2.48437,-2.20312 6.09375,-3.32812 3.60937,-1.14844 8.17969,-1.14844 6.07031,0 10.47656,2.01562 4.40625,1.99219 6.72656,5.90625 2.32031,3.89063 2.32031,9.44532 z m -26.83593,0.0937 q 0,3.25781 1.45312,5.67187 1.47656,2.41406 5.78906,2.41406 3.32813,0 4.96875,-1.26562 1.66407,-1.26563 2.0625,-2.88281 0.42188,-1.64063 0.5625,-3.9375 -0.14062,-3.25782 -1.57031,-5.67188 -1.42969,-2.4375 -6.02344,-2.4375 -7.24218,0 -7.24218,8.10938 z"
           style="font-style:normal;font-variant:normal;font-weight:normal;font-stretch:normal;font-size:48px;font-family:'StarJedi Special Edition';-inkscape-font-specification:'StarJedi Special Edition';text-align:center;text-anchor:middle;fill:#28987a;fill-opacity:1;stroke:none;stroke-width:1.00086904;stroke-miterlimit:3.5;stroke-dasharray:none;stroke-opacity:1;paint-order:fill markers stroke"
           id="path1084"
           inkscape:connector-curvature="0" />
        <path
           d="m 523.90332,275.07611 h 10.59375 v 10.07812 h -15 q -5.50781,0 -9.96094,-1.94531 -4.45312,-1.96875 -7.03125,-5.88281 -2.55468,-3.91407 -2.55468,-9.58594 0,-3.98438 1.52343,-7.10156 1.54688,-3.14063 4.26563,-5.20313 2.71875,-2.08594 6.23437,-3.09375 3.53907,-1.03125 7.52344,-1.03125 h 9.28125 5.71875 v 10.07813 h -10.59375 q -3.5625,0 -5.27344,0.21093 -1.71093,0.21094 -3.04687,0.70313 -1.33594,0.49219 -2.36719,1.71094 -1.03125,1.21875 -1.19531,4.3125 0.11719,3 1.19531,4.28906 1.07813,1.28906 2.625,1.71094 1.54688,0.42187 3.1875,0.58593 1.64063,0.16407 4.875,0.16407 z"
           style="font-style:normal;font-variant:normal;font-weight:normal;font-stretch:normal;font-size:48px;font-family:'StarJedi Special Edition';-inkscape-font-specification:'StarJedi Special Edition';text-align:center;text-anchor:middle;fill:#28987a;fill-opacity:1;stroke:none;stroke-width:1.00086904;stroke-miterlimit:3.5;stroke-dasharray:none;stroke-opacity:1;paint-order:fill markers stroke"
           id="path1086"
           inkscape:connector-curvature="0" />
        <path
           d="m 535.43457,251.31048 h 11.01563 v 33.84375 h -11.01563 z"
           style="font-style:normal;font-variant:normal;font-weight:normal;font-stretch:normal;font-size:48px;font-family:'StarJedi Special Edition';-inkscape-font-specification:'StarJedi Special Edition';text-align:center;text-anchor:middle;fill:#28987a;fill-opacity:1;stroke:none;stroke-width:1.00086904;stroke-miterlimit:3.5;stroke-dasharray:none;stroke-opacity:1;paint-order:fill markers stroke"
           id="path1088"
           inkscape:connector-curvature="0" />
        <path
           d="m 545.5127,285.15423 11.13281,-33.84375 h 16.80469 l 11.32031,33.84375 h -12.79688 l -2.13281,-6.09375 h -10.05469 l -2.13281,6.09375 z m 19.57031,-26.34375 -4.85156,13.40625 h 9.32812 z"
           style="font-style:normal;font-variant:normal;font-weight:normal;font-stretch:normal;font-size:48px;font-family:'StarJedi Special Edition';-inkscape-font-specification:'StarJedi Special Edition';text-align:center;text-anchor:middle;fill:#28987a;fill-opacity:1;stroke:none;stroke-width:1.00086904;stroke-miterlimit:3.5;stroke-dasharray:none;stroke-opacity:1;paint-order:fill markers stroke"
           id="path1090"
           inkscape:connector-curvature="0" />
        <path
           d="m 584.30176,285.15423 v -33.84375 h 11.01562 v 23.76563 h 18.32813 v 10.07812 z"
           style="font-style:normal;font-variant:normal;font-weight:normal;font-stretch:normal;font-size:48px;font-family:'StarJedi Special Edition';-inkscape-font-specification:'StarJedi Special Edition';text-align:center;text-anchor:middle;fill:#28987a;fill-opacity:1;stroke:none;stroke-width:1.00086904;stroke-miterlimit:3.5;stroke-dasharray:none;stroke-opacity:1;paint-order:fill markers stroke"
           id="path1092"
           inkscape:connector-curvature="0" />
        <path
           d="m 472.61035,321.38861 h -10.64062 q -6.02344,-0.1875 -1.78125,3.32812 7.59375,6.65625 7.45312,12.9375 -0.14062,6.28125 -7.45312,7.5 h -29.53125 v -10.07812 h 18.65625 q 6.63281,0.1875 1.6875,-3.70313 -8.15625,-7.5 -6.9375,-13.78125 1.21875,-6.28125 7.6875,-6.28125 h 20.85937 z"
           style="font-style:normal;font-variant:normal;font-weight:normal;font-stretch:normal;font-size:48px;font-family:'StarJedi Special Edition';-inkscape-font-specification:'StarJedi Special Edition';text-align:center;text-anchor:middle;fill:#28987a;fill-opacity:1;stroke:none;stroke-width:1.00086904;stroke-miterlimit:3.5;stroke-dasharray:none;stroke-opacity:1;paint-order:fill markers stroke"
           id="path1094"
           inkscape:connector-curvature="0" />
        <path
           d="m 489.60254,322.98236 v -11.67188 h 11.01562 v 33.84375 h -11.01562 v -12.1875 h -8.85938 v 12.1875 h -11.01562 v -33.84375 h 11.01562 v 11.67188 z"
           style="font-style:normal;font-variant:normal;font-weight:normal;font-stretch:normal;font-size:48px;font-family:'StarJedi Special Edition';-inkscape-font-specification:'StarJedi Special Edition';text-align:center;text-anchor:middle;fill:#28987a;fill-opacity:1;stroke:none;stroke-width:1.00086904;stroke-miterlimit:3.5;stroke-dasharray:none;stroke-opacity:1;paint-order:fill markers stroke"
           id="path1096"
           inkscape:connector-curvature="0" />
        <path
           d="m 499.68066,345.15423 11.13282,-33.84375 h 16.80468 l 11.32032,33.84375 H 526.1416 l -2.13281,-6.09375 H 513.9541 l -2.13281,6.09375 z m 19.57032,-26.34375 -4.85157,13.40625 h 9.32813 z"
           style="font-style:normal;font-variant:normal;font-weight:normal;font-stretch:normal;font-size:48px;font-family:'StarJedi Special Edition';-inkscape-font-specification:'StarJedi Special Edition';text-align:center;text-anchor:middle;fill:#28987a;fill-opacity:1;stroke:none;stroke-width:1.00086904;stroke-miterlimit:3.5;stroke-dasharray:none;stroke-opacity:1;paint-order:fill markers stroke"
           id="path1098"
           inkscape:connector-curvature="0" />
        <path
           d="m 538.46973,345.15423 v -33.84375 h 22.03125 q 4.07812,0.35156 6.70312,2.32031 2.625,1.94532 3.84375,5.22657 0.9375,4.89843 0.0937,7.57031 -0.84375,2.67187 -2.95312,4.45312 -2.10938,1.78125 -2.625,2.03907 -0.51563,0.23437 -0.75,0.75 0.14062,0.89062 3,1.40625 h 6.98437 v 10.07812 h -8.10937 q -7.3125,0.14063 -11.57813,-4.5 l -4.40625,-4.64062 v 9.14062 z m 12.23437,-24.65625 v 5.71875 h 7.92188 q 3.375,-1.125 3.51562,-2.90625 -0.23437,-1.875 -3.60937,-2.8125 z"
           style="font-style:normal;font-variant:normal;font-weight:normal;font-stretch:normal;font-size:48px;font-family:'StarJedi Special Edition';-inkscape-font-specification:'StarJedi Special Edition';text-align:center;text-anchor:middle;fill:#28987a;fill-opacity:1;stroke:none;stroke-width:1.00086904;stroke-miterlimit:3.5;stroke-dasharray:none;stroke-opacity:1;paint-order:fill markers stroke"
           id="path1100"
           inkscape:connector-curvature="0" />
        <path
           d="m 574.79785,345.15423 v -33.84375 h 29.01563 v 10.07813 h -18 v 2.20312 h 7.54687 v 6.5625 h -7.54687 v 4.92188 h 20.85937 v 10.07812 z"
           style="font-style:normal;font-variant:normal;font-weight:normal;font-stretch:normal;font-size:48px;font-family:'StarJedi Special Edition';-inkscape-font-specification:'StarJedi Special Edition';text-align:center;text-anchor:middle;fill:#28987a;fill-opacity:1;stroke:none;stroke-width:1.00086904;stroke-miterlimit:3.5;stroke-dasharray:none;stroke-opacity:1;paint-order:fill markers stroke"
           id="path1102"
           inkscape:connector-curvature="0" />
      </g>
    </g>
  </g>
</svg>
